<?xml version="1.0" encoding="utf-8"?>
<!-- Generator: Adobe Illustrator 18.0.0, SVG Export Plug-In . SVG Version: 6.00 Build 0)  -->
<!DOCTYPE svg PUBLIC "-//W3C//DTD SVG 1.1//EN" "http://www.w3.org/Graphics/SVG/1.1/DTD/svg11.dtd">
<svg version="1.1" id="Layer_1" xmlns="http://www.w3.org/2000/svg" xmlns:xlink="http://www.w3.org/1999/xlink" x="0px" y="0px"
	 viewBox="0 0 4096 2048" enable-background="new 0 0 4096 2048" xml:space="preserve">
<rect id="Earth" x="8.1" y="1360.2" fill="#EFEFA8" width="4096" height="682.7"/>
<ellipse id="shadow_neko" transform="matrix(0.9994 -3.505788e-002 3.505788e-002 0.9994 -55.2716 51.0872)" fill="#DCE9AE" cx="1429.1" cy="1601.6" rx="251.4" ry="83.6"/>
<ellipse id="shadow_penguin" transform="matrix(1 6.116264e-003 -6.116264e-003 1 9.7176 -17.3916)" fill="#DCE9AE" cx="2848.3" cy="1580.1" rx="251.4" ry="83.6"/>
<rect id="sky" x="6.9" y="-28" fill="#B1D7EC" width="4096" height="1388.3"/>
<path id="cloud_1_" fill="#FDFDFE" d="M690,283.7c47.5,13.9,27.7,17.6,58,35.3c30.2,17.6,80.2,110.6,0,116.5
	c-84.8,6.3-49.1,18.9-102,43.5s-80.6-6.7-115.3,0c-84.5,16.4-73.7-28.3-96.4-30.2c-22.7-1.9-75.6,9.4-102-52.9s21.7-55.2,37.8-73.7
	c10.5-12,0-57,78.9-52.3c0,0,49.6-63,127.1-46C653.5,240.9,603.7,258.5,690,283.7z"/>
<path id="cloud_4_" fill="#FDFDFE" d="M3805.1,267c37,10.8,21.6,13.7,45.1,27.5c23.5,13.7,62.4,86.1,0,90.7
	c-66,4.9-38.3,14.7-79.5,33.8c-41.2,19.1-62.8-5.2-89.8,0c-65.8,12.8-57.4-22.1-75-23.5c-17.7-1.5-58.9,7.4-79.5-41.2
	s16.9-42.9,29.4-57.4c8.2-9.4,0-44.4,61.4-40.7c0,0,38.6-49.1,98.9-35.8S3737.9,247.4,3805.1,267z"/>
<path id="cloud_2_" fill="#FDFDFE" d="M3109.1,641.3c37,10.8,21.6,13.7,45.1,27.5c23.5,13.7,62.4,86.1,0,90.7
	c-66,4.9-38.3,14.7-79.5,33.8c-41.2,19.1-62.8-5.2-89.8,0c-65.8,12.8-57.4-22.1-75-23.5c-17.7-1.5-58.9,7.4-79.5-41.2
	s16.9-42.9,29.4-57.4c8.2-9.4,0-44.4,61.4-40.7c0,0,38.6-49.1,98.9-35.8C3080.6,608,3041.9,621.7,3109.1,641.3z"/>
<path id="cloud_3_" fill="#FDFDFE" d="M1329.9,689.3c37,10.8,21.6,13.7,45.1,27.5s62.4,86.1,0,90.7c-66,4.9-38.3,14.7-79.5,33.8
	c-41.2,19.1-62.8-5.2-89.8,0c-65.8,12.8-57.4-22.1-75-23.5c-17.7-1.5-58.9,7.4-79.5-41.2s16.9-42.9,29.4-57.4
	c8.2-9.4,0-44.4,61.4-40.7c0,0,38.6-49.1,98.9-35.8C1301.5,656,1262.7,669.7,1329.9,689.3z"/>
<path id="cloud_little_2_" fill="#FDFDFE" d="M625.8,841.1c23.5,6.9,13.7,8.7,28.7,17.5c15,8.7,39.7,54.7,0,57.7
	c-42,3.1-24.3,9.4-50.5,21.5c-26.2,12.2-39.9-3.3-57.1,0c-41.9,8.1-36.5-14-47.7-15c-11.2-0.9-37.4,4.7-50.5-26.2
	c-13.1-30.9,10.7-27.3,18.7-36.5c5.2-6,0-28.2,39.1-25.9c0,0,24.6-31.2,62.9-22.8C607.7,819.9,583,828.6,625.8,841.1z"/>
<path id="cloud_little_1_" fill="#FDFDFE" d="M3609.3,703.6c19.4-10.9,20.9,12.7,20.9,12.7c8.7-1.4,28-3.9,22.2,17.6
	c-0.7,2.6-8,4.8-14.5,6.3c-3.6,0.8-5.6,4.7-4.2,8.1c1.3,3.1,0.8,6.9-3.5,10c-18.5,13.3-35.3,14.6-54,2.1c0,0-11.9,11-24.4,13.6
	c-29.1,6.1-34.8-10.9-34.8-10.9c-8.2-0.7-29.4,4.2-36.8-19.1c-7.5-23.6,25.8-19.1,20.4-19.6c-5.7-0.6-6.8-27.5,21.7-25.8
	c0,0-3-13.7,25.6-13.7c17,0,20.5,13.5,20.5,13.5c3,0.1,6.5-7.5,22.5-5.8C3602.2,693.9,3609.3,703.6,3609.3,703.6z"/>
<path id="cloud_little" fill="#FDFDFE" d="M2151.5,650.8c19.4-10.9,20.9,12.7,20.9,12.7c8.7-1.4,28-3.9,22.2,17.6
	c-0.7,2.6-8,4.8-14.5,6.3c-3.6,0.8-5.6,4.7-4.2,8.1c1.3,3.1,0.8,6.9-3.5,10c-18.5,13.3-35.3,14.6-54,2.1c0,0-11.9,11-24.4,13.6
	c-29.1,6.1-34.8-10.9-34.8-10.9c-8.2-0.7-29.4,4.2-36.8-19.1c-7.5-23.6,25.8-19.1,20.4-19.6c-5.7-0.6-6.8-27.5,21.7-25.8
	c0,0-3-13.7,25.6-13.7c17,0,20.5,13.5,20.5,13.5c3,0.1,6.5-7.5,22.5-5.8C2144.4,641.1,2151.5,650.8,2151.5,650.8z"/>
<path fill="#FDFDFE" d="M1887.5,225c65.1,19,38,24.2,79.4,48.3c41.4,24.2,109.9,151.5,0,159.7c-116.2,8.7-67.3,25.9-139.8,59.6
	s-110.5-9.2-158,0c-115.8,22.5-101-38.8-132.1-41.4c-31.1-2.6-103.6,12.9-139.8-72.5s29.7-75.6,51.8-101
	c14.3-16.5,0-78.1,108.1-71.6c0,0,68-86.3,174.1-63C1837.4,166.3,1769.2,190.5,1887.5,225z"/>
<path fill="#B1D7EC" d="M1645.8,305.8c0,4.2-3.2,9-11.2,9c-9.6,0-11.2-4.8-11.2-9s2.5-11.7,11.2-11.7
	C1644.3,294.2,1645.8,301.6,1645.8,305.8z"/>
<path fill="#B1D7EC" d="M1789.4,305.4c0,4.3-5.2,9.4-11.6,9.4s-11.6-5.1-11.6-9.4c0-4.3,2.3-11.3,11.6-11.3
	C1788,294.2,1789.4,301.1,1789.4,305.4z"/>
<line fill="none" stroke="#B1D7EC" stroke-width="20" stroke-linecap="round" stroke-miterlimit="10" x1="1673" y1="364.9" x2="1739.8" y2="365.2"/>
<circle id="sun" fill="#F8EAA6" cx="2695.6" cy="267.8" r="128.8"/>
<path opacity="0.37" fill="#FFFFFF" d="M2891.1,1578.5"/>
<ellipse fill="#DDE6A7" cx="2535" cy="-462.5" rx="2.2" ry="0.3"/>
<g>
	<ellipse fill="#E6E098" cx="1759.4" cy="1517.2" rx="15.3" ry="10"/>
	<ellipse fill="#E6E098" cx="1727.2" cy="1516" rx="5.5" ry="3.9"/>
	<ellipse fill="#E6E098" cx="1734" cy="1528.9" rx="5.3" ry="3.1"/>
	<ellipse fill="#E6E098" cx="1751.3" cy="1539.5" rx="5.7" ry="3.7"/>
	<ellipse fill="#E6E098" cx="1772.3" cy="1535.3" rx="5.8" ry="3.4"/>
</g>
<g>
	<ellipse fill="#E6E098" cx="1765.3" cy="1591.8" rx="20.4" ry="13.3"/>
	<ellipse fill="#E6E098" cx="1722.2" cy="1590.1" rx="7.3" ry="5.2"/>
	<ellipse fill="#E6E098" cx="1731.4" cy="1607.3" rx="7.1" ry="4.1"/>
	<ellipse fill="#E6E098" cx="1754.4" cy="1621.6" rx="7.6" ry="5"/>
	<ellipse fill="#E6E098" cx="1782.5" cy="1616" rx="7.7" ry="4.5"/>
</g>
<g>
	<ellipse fill="#C6C087" cx="3234.5" cy="1524.7" rx="20.4" ry="13.3"/>
	<ellipse fill="#C6C087" cx="3191.5" cy="1523" rx="7.3" ry="5.2"/>
	<ellipse fill="#C6C087" cx="3200.7" cy="1540.2" rx="7.1" ry="4.1"/>
	<ellipse fill="#C6C087" cx="3223.7" cy="1554.4" rx="7.6" ry="5"/>
	<ellipse fill="#C6C087" cx="3251.7" cy="1548.8" rx="7.7" ry="4.5"/>
</g>
<path fill="#E1DD95" d="M3279.4,1579.2c9.7-11.8,33.3-14.3,58.9,5.6c25.6,20-10.9,47.3-32.3,41c-13.8-4.1,4.1-17.9,4.1-17.9
	s-23.2,7.6-26.6-3.1c-1.1-3.5,10.8-14.9,10.8-14.9s-22,9.7-22,2.6S3279.4,1579.2,3279.4,1579.2z"/>
<path fill="#E1DD95" d="M3389,1456.4c7.4-9,25.4-10.9,44.9,4.3c19.5,15.2-8.3,36.1-24.6,31.3c-10.5-3.1,3.1-13.7,3.1-13.7
	s-17.7,5.8-20.3-2.3c-0.9-2.7,8.2-11.3,8.2-11.3s-16.8,7.4-16.8,2S3389,1456.4,3389,1456.4z"/>
<path fill="#E1DD95" d="M1117.3,1565.4c7.4-9,25.4-10.9,44.9,4.3s-8.3,36.1-24.6,31.3c-10.5-3.1,3.1-13.7,3.1-13.7
	s-17.7,5.8-20.3-2.3c-0.9-2.7,8.2-11.3,8.2-11.3s-16.8,7.4-16.8,2C1111.8,1570.1,1117.3,1565.4,1117.3,1565.4z"/>
<path fill="#E1DD95" d="M3559.7,1437.7c4.8-5.8,16.4-7.1,29,2.8c12.6,9.8-5.4,23.3-15.9,20.2c-6.8-2,2-8.8,2-8.8s-11.4,3.8-13.1-1.5
	c-0.6-1.7,5.3-7.3,5.3-7.3s-10.8,4.8-10.8,1.3S3559.7,1437.7,3559.7,1437.7z"/>
<path fill="#BADDAD" d="M248.7,1790.5c0,0-5.4-43.8,38-42.1s15.6,62.1-8.2,59.1c0,0,61.6,30.3,13.7,59
	c-42.2,25.3-46.9-38.4-46.9-38.4s-59.9,15.4-52.1-28.1C199.9,1762.5,248.7,1790.5,248.7,1790.5z"/>
<path fill="#CFE292" d="M581,1597.1c0,0-49.7-23.1-19.5-67.7c30.2-44.6,75.7,24.3,56.9,47.5c0,0,72.4-45.1,71.2,24.2
	c-1,61.1-71.2,24.2-71.2,24.2s-23.1,73.3-63.9,36.5C519.4,1630.2,581,1597.1,581,1597.1z"/>
<path fill="#BADDAD" d="M716.9,1571.2c0,0-14.1-91.4,63.5-69.1c39.2,11.3,17.2,77.6-18.2,94.5c0,0,82.9,19.8,39.6,77.3
	c-36.7,48.7-71.1-43.7-71.1-43.7s-21.3,80.7-66.5,42.7c-40.5-33.9,31.7-79.2,26.4-73.8c-10,10.2-91.1,2.6-54.6-60
	C672.6,1476.1,716.9,1571.2,716.9,1571.2z"/>
<path fill="#CDE088" d="M2160.7,1700.3c0,0-14.6-41.6,28.1-49.3c42.7-7.7,28.5,57.3,4.6,59.5c0,0,66.6,16.4,26.1,54.7
	c-35.8,33.8-54-27.5-54-27.5s-55.2,27.9-57-16.3C2107,1683.5,2160.7,1700.3,2160.7,1700.3z"/>
<path fill="#CDE088" d="M3137.1,1882.2c0,0-21.1-1-16.7-21.3c4.3-20.3,30.5-2.3,27.2,8.7c0,0,19.3-26.5,28.9-1.7
	c8.5,21.9-21.9,18.9-21.9,18.9s2.4,29.5-17.5,22.3C3119.9,1902.9,3137.1,1882.2,3137.1,1882.2z"/>
<path fill="#CDE088" d="M3925.7,1784.4c0,0-21.1-1-16.7-21.3c4.3-20.3,30.5-2.3,27.2,8.7c0,0,19.3-26.5,28.9-1.7
	c8.5,21.9-21.9,18.9-21.9,18.9s2.4,29.5-17.5,22.3C3908.5,1805.1,3925.7,1784.4,3925.7,1784.4z"/>
<path fill="#C6DC68" d="M1361.3,1883.9c0,0-41.3-15.3-20-53.1c21.3-37.8,62.3,14.6,48.7,34.4c0,0,55.1-40.8,58.7,14.8
	c3.2,49.1-55.6,24-55.6,24s-13.8,60.3-48.9,33.4C1314,1914.4,1361.3,1883.9,1361.3,1883.9z"/>
<line fill="none" stroke="#3F2019" stroke-width="1.3824" stroke-linecap="round" stroke-miterlimit="10" x1="1264" y1="1277.9" x2="1293.6" y2="1278.1"/>
<line fill="none" stroke="#3F2019" stroke-width="1.3824" stroke-linecap="round" stroke-miterlimit="10" x1="1265.7" y1="1300.5" x2="1295.3" y2="1300.6"/>
<line fill="none" stroke="#3F2019" stroke-width="1.3824" stroke-linecap="round" stroke-miterlimit="10" x1="1525.6" y1="1277.2" x2="1555.1" y2="1274.6"/>
<line fill="none" stroke="#3F2019" stroke-width="1.3824" stroke-linecap="round" stroke-miterlimit="10" x1="1529.5" y1="1299.5" x2="1558.9" y2="1296.9"/>
<path fill="#EFDDAC" stroke="#3F2019" stroke-width="9.6765" stroke-linejoin="round" stroke-miterlimit="10" d="M1193.8,1262.7
	c15.2-56,44.7-98.1,44.7-98.1s-7.4-73.8,15.5-75.5c22.9-1.7,63.2,27.9,63.2,27.9s41-19.9,97.8-17.2c56.8,2.7,91.2,11.6,91.2,11.6
	s54.5-39.6,70.4-28.4s11.5,69,11.5,69s58.4,92,70.3,201.7c11.9,109.7,7.4,212.7-72.5,255.1c-79.9,42.4-230.6,28.3-302.4,15.2
	c-71.8-13.1-120.2-86.8-115-219.5C1170.4,1351.6,1178.6,1318.7,1193.8,1262.7z"/>
<ellipse transform="matrix(0.9795 -0.2017 0.2017 0.9795 -223.6434 291.8555)" fill="#3F2019" cx="1320.5" cy="1243.5" rx="11.6" ry="7.4"/>
<ellipse transform="matrix(0.9857 0.1688 -0.1688 0.9857 231.6243 -235.8891)" fill="#3F2019" cx="1503.4" cy="1244.5" rx="11.6" ry="7.4"/>
<path fill="none" stroke="#3F2019" stroke-width="9.6765" stroke-linecap="round" stroke-miterlimit="10" d="M1322.2,1416.5
	c0,0,53.5,39.5,82.5,9.8c22.4-22.9-31.3-45-34.7-45.4"/>
<path fill="none" stroke="#3F2019" stroke-width="9.6765" stroke-linecap="round" stroke-miterlimit="10" d="M1452,1378
	c0,0-37,19-35.9,33.9c1.6,21,17.5,38.5,77.2,11.4"/>
<path fill="none" stroke="#3F2019" stroke-width="9.6765" stroke-linecap="round" stroke-miterlimit="10" d="M1353.5,1577.4
	c0,0,26.2,13,29.4,31.4c3.2,18.3-19.7,26.3-41.1,23.5"/>
<path fill="none" stroke="#3F2019" stroke-width="9.6765" stroke-linecap="round" stroke-miterlimit="10" d="M1461.5,1576.6
	c0,0-31.6,15.5-30.1,34.6c1.3,16.5,19.9,28.4,52.7,23.7"/>
<path fill="#EDBC65" d="M1173,1408.9c0,0,52.7,6.6,89.3,73.7c36.5,67.1,9.6,133.8,9.6,133.8s-64-18.3-85.1-97.6
	C1169.8,1455.3,1173,1408.9,1173,1408.9z"/>
<path fill="#EDBC65" d="M1244.7,1164.7c0,0,59.4-5.8,71.2-42.5c0,0-45.5-35.3-60.8-28.7C1241.3,1099.4,1243.2,1133.9,1244.7,1164.7z
	"/>
<path fill="#FBF9FB" stroke="#3F2019" stroke-width="9.6765" stroke-miterlimit="10" d="M1453.5,1280.9c1.6,18.1-16.8,34.5-41,36.6
	c-24.2,2.1-45.2-10.9-46.8-29s16.8-34.5,41-36.6C1431,1249.8,1452,1262.8,1453.5,1280.9z"/>
<path fill="#634019" stroke="#3F2019" stroke-width="9.6765" stroke-miterlimit="10" d="M1425.9,1254.4c0.2,5.8-7.9,10.9-18,11.2
	c-10.1,0.4-18.4-4.1-18.6-9.9c-0.2-5.8,7.9-10.9,18-11.2C1417.4,1244.1,1425.7,1248.5,1425.9,1254.4z"/>
<path fill="none" stroke="#3F2019" stroke-width="7.2005" stroke-linecap="round" stroke-linejoin="round" stroke-miterlimit="10" d="
	M1658.2,1141c0,0,14.8-24.4,29-4c3.3,4.7,5,7.8-7.1,24.8"/>
<path fill="none" stroke="#3F2019" stroke-width="7.2005" stroke-linecap="round" stroke-linejoin="round" stroke-miterlimit="10" d="
	M1640.7,1178.3c0,0,18.1-20.1,28.3-3c2.9,4.9,5,7.8-7.1,24.8"/>
<g id="cuke">
	<g>
		<path fill="#FFFFFF" d="M2627.4,1056.8c23.1-8.2,81.8-32.1,62.3-108.4c-22.5-87.9-129.6-71.2-163.2-46
			c-28.3,21.2-66.6,85.7-12.5,148.1c0,0-9.2,22.1,29,32.1c38.3,10.1,39.6-20.2,39.6-20.2S2604.3,1065,2627.4,1056.8z"/>
		<ellipse fill="#FFFFFF" cx="2562.1" cy="1114.5" rx="18.5" ry="13.6"/>
		<ellipse fill="#FFFFFF" cx="2585.5" cy="1136.5" rx="12.2" ry="8.5"/>
		<g>
			<path fill="#4BB14E" stroke="#3D201A" stroke-width="3.8691" stroke-miterlimit="10" d="M2541.7,990.5
				c-12.5-3.2-34.2,15.6,0,29.9c14.7,6.1,41.5,6.7,61.8-2.3c20.3-8.9,34.2-27.3,33.2-45.9c-2-37.2-23.1-23.3-27.7-12
				c-4.6,11.3-1.8,32.8-35,32.8C2564.4,993.1,2559.3,995,2541.7,990.5z"/>
			<path fill="none" stroke="#3D201A" stroke-width="3.8691" stroke-miterlimit="10" d="M2647.7,923c0,0-3.3,18.9-19.1,10.1
				c-15.8-8.8,7-15.1,9.6-6.9s-2.9,19.9-11.5,21.9"/>
			<path fill="#3D201A" d="M2627.5,976.4c1.7,2.5-1.1,5.2-3.7,3.5c-0.1-0.1-0.2-0.2-0.3-0.3c-1.7-2.5,1.1-5.2,3.7-3.5
				C2627.3,976.1,2627.5,976.2,2627.5,976.4z"/>
			<path fill="#3D201A" d="M2625,990.3c1.7,2.5-1.1,5.2-3.7,3.5c-0.1-0.1-0.2-0.2-0.3-0.3c-1.7-2.5,1.1-5.2,3.7-3.5
				C2624.8,990,2624.9,990.2,2625,990.3z"/>
			<path fill="#3D201A" d="M2608.6,993.6c1.5,2.1-0.9,4.4-3.1,3c-0.1-0.1-0.2-0.2-0.3-0.3c-1.5-2.1,0.9-4.4,3.1-3
				C2608.4,993.4,2608.5,993.5,2608.6,993.6z"/>
		</g>
	</g>
</g>
<g>
	<path fill="#A3CF5F" d="M314.7,697.7c0,0,20.8-59.2-40-70.1c-60.7-10.9-40.5,81.5-6.6,84.6c0,0-94.8,23.3-37.1,77.8
		c50.9,48.1,76.8-39.1,76.8-39.1s78.5,39.7,81-23.2C391.1,673.7,314.7,697.7,314.7,697.7z"/>
	<path fill="none" stroke="#A3CF5F" stroke-width="7.1135" stroke-linecap="round" stroke-miterlimit="10" d="M408.4,833.6
		c0,0-89.7-14.5-100.6-82.7"/>
</g>
<g id="fence">
	<polygon fill="#936E3C" points="3735.4,1632.2 3735.4,1882.9 3785.4,1882.9 3786.4,1632.2 	"/>
	<polygon fill="#936E3C" points="3322,1640.4 3322,1891.1 3371.9,1891.1 3373,1640.4 	"/>
	<polygon fill="#936E3C" points="2929.7,1664.8 2929.7,1915.5 2979.6,1915.5 2980.7,1664.8 	"/>
	
		<polygon fill="#C2A46F" stroke="#7C562B" stroke-width="6.5113" stroke-linecap="round" stroke-linejoin="round" stroke-miterlimit="10" points="
		3322,1665.9 3322,1711.5 3798.4,1700.6 3802.7,1648.5 	"/>
	
		<polygon fill="#C2A46F" stroke="#7C562B" stroke-width="6.5113" stroke-linecap="round" stroke-linejoin="round" stroke-miterlimit="10" points="
		3802.7,1767.9 3802.7,1813.5 3326.3,1802.6 3322,1750.5 	"/>
	
		<polygon fill="#C2A46F" stroke="#7C562B" stroke-width="6.5113" stroke-linecap="round" stroke-linejoin="round" stroke-miterlimit="10" points="
		2929.7,1739.1 2929.7,1782 3418,1750.5 3418,1696.8 	"/>
	<polygon fill="#936E3C" points="2929.2,1663.5 2929.2,1914.2 2979.1,1914.2 2980.2,1663.5 	"/>
	<polygon fill="#936E3C" points="2515.7,1671.6 2515.7,1922.3 2565.6,1922.3 2566.7,1671.6 	"/>
	
		<polygon fill="#C2A46F" stroke="#7C562B" stroke-width="6.5113" stroke-linecap="round" stroke-linejoin="round" stroke-miterlimit="10" points="
		2515.7,1697.1 2515.7,1742.7 2992.1,1731.9 2996.5,1679.8 	"/>
	
		<polygon fill="#C2A46F" stroke="#7C562B" stroke-width="6.5113" stroke-linecap="round" stroke-linejoin="round" stroke-miterlimit="10" points="
		2996.5,1799.1 2996.5,1844.7 2520.1,1833.9 2515.7,1781.8 	"/>
	
		<polygon fill="#C2A46F" stroke="#7C562B" stroke-width="6.5113" stroke-linecap="round" stroke-linejoin="round" stroke-miterlimit="10" points="
		2123.4,1770.4 2123.4,1813.2 2611.8,1781.8 2611.8,1728.1 	"/>
	<polygon fill="#936E3C" points="2111.8,1679.5 2102.2,1930 2152.1,1931.9 2162.8,1681.5 	"/>
	<polygon fill="#936E3C" points="1698.3,1671.9 1688.8,1922.4 1738.6,1924.3 1749.3,1673.8 	"/>
	<polygon fill="#936E3C" points="1305.4,1681.3 1295.8,1931.8 1345.7,1933.7 1356.4,1683.2 	"/>
	
		<polygon fill="#C2A46F" stroke="#7C562B" stroke-width="6.5113" stroke-linecap="round" stroke-linejoin="round" stroke-miterlimit="10" points="
		1697.4,1697.3 1695.6,1742.9 2172.1,1750.2 2178.4,1698.4 	"/>
	
		<polygon fill="#C2A46F" stroke="#7C562B" stroke-width="6.5113" stroke-linecap="round" stroke-linejoin="round" stroke-miterlimit="10" points="
		2173.9,1817.6 2172.1,1863.2 1696.5,1834.1 1694.1,1781.9 	"/>
	
		<polygon fill="#C2A46F" stroke="#7C562B" stroke-width="6.5113" stroke-linecap="round" stroke-linejoin="round" stroke-miterlimit="10" points="
		1302.5,1755.6 1300.9,1798.4 1790.1,1785.6 1792.2,1731.9 	"/>
	<polygon fill="#936E3C" points="1305,1679.9 1295.4,1930.4 1345.3,1932.4 1355.9,1681.9 	"/>
	<polygon fill="#936E3C" points="891.5,1672.3 881.9,1922.8 931.8,1924.7 942.4,1674.2 	"/>
	<polygon fill="#936E3C" points="498.5,1681.7 489,1932.2 538.8,1934.1 549.5,1683.6 	"/>
	
		<polygon fill="#C2A46F" stroke="#7C562B" stroke-width="6.5113" stroke-linecap="round" stroke-linejoin="round" stroke-miterlimit="10" points="
		890.5,1697.8 888.8,1743.3 1365.2,1750.7 1371.6,1698.8 	"/>
	
		<polygon fill="#C2A46F" stroke="#7C562B" stroke-width="6.5113" stroke-linecap="round" stroke-linejoin="round" stroke-miterlimit="10" points="
		1367,1818.1 1365.3,1863.6 889.6,1834.6 887.3,1782.3 	"/>
	
		<polygon fill="#C2A46F" stroke="#7C562B" stroke-width="6.5113" stroke-linecap="round" stroke-linejoin="round" stroke-miterlimit="10" points="
		495.7,1756 494.1,1798.8 983.2,1786 985.3,1732.3 	"/>
</g>
<path id="shamrock" fill="#BADDAD" d="M3193.6,1849.6c0,0-40.4-17.5-17.1-54.1s61.4,18,46.8,37c0,0,57.3-37.7,57.8,18
	c0.5,49.2-56.8,21-56.8,21s-17.1,59.4-50.7,30.7C3144.8,1877.5,3193.6,1849.6,3193.6,1849.6z"/>
<path fill="#D7E37E" stroke="#3E2019" stroke-width="10.6972" stroke-linecap="round" stroke-miterlimit="10" d="M2612.4,1280.8
	c1.8-21.1,6.8-121.7,78.1-192.1c54.5-53.8,107-68.2,189.9-61.6c82.9,6.7,133.7,55.7,163.1,123c40.9,93.5,84.3,305.6,10.9,391.8
	c-53.8,63.2-165.6,77.3-277.9,63.9c-112.3-13.4-166.8-61.1-173.5-172.9C2600.5,1391.8,2609.3,1317.2,2612.4,1280.8z"/>
<path fill="#FAE677" d="M2893.9,1239.7c0,13.3-28.2,33.8-54.8,33.8s-51.3-23.7-51.3-37c0-13.3,21.6-24.1,48.2-24.1
	C2862.6,1212.5,2893.9,1226.4,2893.9,1239.7z"/>
<path fill="#3E2019" d="M2943.4,1201.6c0,4.4-3.5,10.9-10.5,10.9s-13.8-5.4-13.8-9.8c0-4.4,5.4-11.9,12.4-11.9
	C2938.5,1190.7,2943.4,1197.2,2943.4,1201.6z"/>
<path fill="#3E2019" d="M2758.7,1206.4c0,4.4-3.5,10.9-10.5,10.9c-7,0-13.8-5.4-13.8-9.8c0-4.4,5.4-11.9,12.4-11.9
	C2753.9,1195.5,2758.7,1202,2758.7,1206.4z"/>
<path fill="#3E2019" d="M2895.6,1243.1c0-20.5-38.2-31.7-54.4-32.8c-33.2-2.2-53.4,17-53.4,31.9c0,18.4,26.5,32.8,53.1,31.4
	C2861.9,1272.5,2895.6,1269.3,2895.6,1243.1z M2845.1,1266c-33,2.8-46.8-9.8-48.1-20.7c-2.1-17.4,12.8-27.8,42-27.3
	c22.5,0.4,45.3,9,46.9,28.1C2886.6,1257,2867.4,1264.1,2845.1,1266z"/>
<path fill="#3E2019" d="M2795.6,1238.8l0,8c0,0,29.6,1.6,43.7,1.6s47.5-5.3,47.5-5.3l-2.9-8.9c0,0-26.1,6.6-44.5,7.1
	C2821,1241.9,2795.6,1238.8,2795.6,1238.8z"/>
<path fill="#FFFFFF" d="M2757.1,1588c-16.3-6.5-55.1-47.9-35.5-136.1c28.4-127.9,169.4-90.7,190.5-77.1
	c54.3,35.1,89.8,79.7,51,180.4c-2.9,7.5-21.1,29.4-29.1,32.5c-9.1,3.6-46,18.7-87,18.4C2808.6,1605.8,2768.3,1592.4,2757.1,1588z"/>
<line fill="none" stroke="#3F2019" stroke-width="7.6418" stroke-linecap="round" stroke-linejoin="round" stroke-miterlimit="10" x1="3091.1" y1="1207.1" x2="3098.6" y2="1250.1"/>
<line fill="none" stroke="#3F2019" stroke-width="5.5936" stroke-linecap="round" stroke-linejoin="round" stroke-miterlimit="10" x1="3111.2" y1="1210.2" x2="3116.6" y2="1241.6"/>
<path fill="#D7E37E" stroke="#3E2019" stroke-width="8.6276" stroke-linecap="round" stroke-miterlimit="10" d="M2761.9,1375.9
	c0,0,41.4,29.5,67.2,17.1c25.8-12.4,9.2-45.3-38.7-66.3"/>
<path fill="#D7E37E" stroke="#3E2019" stroke-width="8.6276" stroke-linecap="round" stroke-miterlimit="10" d="M2926.3,1375.9
	c0,0-41.4,29.5-67.2,17.1c-25.8-12.4-9.2-45.3,38.7-66.3"/>
<path fill="#FAE677" stroke="#322516" stroke-width="8.2269" stroke-linejoin="round" stroke-miterlimit="10" d="M2725.7,1589.6
	c-13.5,2.9-3.2,31.7,5.7,35.7c8.9,4,19.2-6.7,19.2-6.7s0,14.3,14.7,13.4c14.7-0.9,15.2-13.8,15.2-13.8s1.3,17,14.3,13.9
	s24.6-21.3,18.4-30.4S2739.1,1586.7,2725.7,1589.6z"/>
<path fill="#FAE677" stroke="#322516" stroke-width="8.2269" stroke-linejoin="round" stroke-miterlimit="10" d="M2968.5,1585.8
	c4.8,6.7,6,26.6-2.3,31.8s-19.9-4-19.9-4s2,14.1-12.7,15.3c-14.7,1.1-16.9-11.6-16.9-11.6s1,17-12.2,15.7
	c-13.2-1.3-28.7-24.3-23.6-32.7C2885.9,1591.9,2963.7,1579.1,2968.5,1585.8z"/>
</svg>
