<?xml version="1.0" encoding="utf-8"?>
<!-- Generator: Adobe Illustrator 19.2.1, SVG Export Plug-In . SVG Version: 6.00 Build 0)  -->
<svg version="1.1" id="Layer_1" xmlns="http://www.w3.org/2000/svg" xmlns:xlink="http://www.w3.org/1999/xlink" x="0px" y="0px"
	 viewBox="0 0 1000 1000" style="enable-background:new 0 0 1000 1000;" xml:space="preserve">
<style type="text/css">
	.st0{fill:#FAE677;stroke:#322413;stroke-width:10.5863;stroke-linejoin:round;stroke-miterlimit:10;}
	.st1{fill:#DEE597;stroke:#3D201A;stroke-width:15.8795;stroke-miterlimit:10;}
	.st2{fill:#FAE677;}
	.st3{fill:#3D201A;}
	.st4{fill:#DEE597;stroke:#3D2019;stroke-width:15.8795;stroke-linecap:round;stroke-miterlimit:10;}
	.st5{fill:#FFFFFF;}
	.st6{fill:#A5593F;stroke:#341810;stroke-width:7.4486;stroke-miterlimit:10;}
	.st7{fill:#BB6844;}
	.st8{fill:#A5593F;}
	.st9{fill:#582312;}
	.st10{fill:#32160F;stroke:#E0CCC4;stroke-width:3.6986;stroke-miterlimit:10;}
	.st11{fill:#EF8C78;}
	.st12{fill:#F2C09C;}
	.st13{fill:#32160F;}
	.st14{fill:#999898;}
	.st15{fill:#32140E;}
	.st16{fill:#DEE597;stroke:#3D2019;stroke-width:14.8972;stroke-linecap:round;stroke-miterlimit:10;}
	.st17{fill:none;stroke:#32140E;stroke-width:12.4144;stroke-linecap:round;stroke-linejoin:round;stroke-miterlimit:10;}
	.st18{fill:none;stroke:#32140E;stroke-width:7.4486;stroke-linecap:round;stroke-linejoin:round;stroke-miterlimit:10;}
</style>
<path class="st0" d="M565.1,822.6c-9.9,0.9-35.7,0.9-44.2,28.9c-8.5,28,11.7,36.1,27.9,23c0,0,14.9,29.6,31.9-2.8
	c0,0,30.9,29.2,32.6-10.8C614.8,829.9,575,821.7,565.1,822.6z"/>
<path class="st0" d="M348.4,795.5c-9.9-0.9-35.2-5.7-48.8,20.3c-13.5,25.9,4.9,37.6,23.2,27.8c0,0,9.2,31.8,31.9,3.2
	c0,0,25,34.4,34.1-4.6C395.9,811.7,358.3,796.4,348.4,795.5z"/>
<path class="st1" d="M804.2,527.9c5.7,73.4,10.8,199.6-87.7,276.4c-60.7,47.3-275.4,24.5-322.8,18.9c-61.3-7.3-169.2-12-192.7-168.4
	c-17.1-113.8,11.5-200.6,21.3-248.7c20.3-99.4,44.4-322.9,306.2-292.2c102,12,185.5,37,236.6,148
	C812.4,364.3,796.9,434.3,804.2,527.9z"/>
<g>
	<path class="st2" d="M500.1,420.9c-1.8,13.7-32,31.4-58.1,28.1c-26-3.3-47.1-30.9-45.3-44.6c1.8-13.7,24.3-22.1,50.3-18.8
		C473.1,388.9,501.9,407.2,500.1,420.9z"/>
	<g>
		<path class="st3" d="M505.3,421.4c0.6-34.4-28.5-39-54.9-40.9c-41.4-2.9-57.5,12.5-58.9,32.9c-1.4,20.3,18.9,41.9,53.7,40.8
			C471.5,453.3,504.6,458.6,505.3,421.4z M450.6,444.1c-34.7,0.7-48.2-14.3-48.7-26.4c-0.8-19.4,15.5-29.7,46-27
			c23.5,2.1,46.7,13.3,46.8,34.5C494.7,437.3,474.1,443.6,450.6,444.1z"/>
		<path class="st3" d="M402.4,405.6l-0.6,12.1c0,0,18.4,12,42.2,13.3c14.2,0.8,54-9.9,54-9.9l-3.8-8.7c0,0-29.4,3.8-49.5,3.5
			C424.5,415.5,402.4,405.6,402.4,405.6z"/>
	</g>
</g>
<path class="st4" d="M241.1,359.9c-11.6-44.3-14.1-107.8-51.4-41.5c-8.4,14.9-21,53.9-1.5,91.2c7.5,14.2,37.4,39.8,37.4,39.8"/>
<path class="st5" d="M605.2,706.7c3.3,37.4-4.7,89.3-40.2,112.2c-13.8,8.9-53.5,3.8-101.2,3.8c-70.3,0-132.3-11.1-150.8-23.8
	c-21.3-14.6-37.5-82.8-31.5-122.6c13.3-88.5,64.3-121.2,86.8-137.1c22.5-15.9,91-18.8,124.5-4.7
	C552.3,559.5,596.9,612.8,605.2,706.7z"/>
<g>
	<path class="st6" d="M251.6,337.8l87,22.9c0.3,0.1,0.7,0.1,1.1,0.1h22.5c2.2,0,4.2-1.7,4.2-3.9c-0.1-1.8,2.1-3.1,11-1.6
		c16.8,2.9,56.9,11.7,61.8,12.8c0.3,0.1,0.7,0.1,1,0.1l70.6-2.4c4.7-0.2,5.6-6.7,1.1-8.1l-19.4-6c-0.3-0.1-0.6-0.1-0.9-0.2
		c-5.9-0.5-68.3-5.4-96.3-8c-18.6-1.7-91.2-8.9-142.2-14C248,329.2,246.7,336.5,251.6,337.8z"/>
	<path class="st7" d="M518.1,144.2c2.6-2.1,113.9,39.1,116.5,44.4c0.3,0.6,2.2,4.1,2,8.3c-1.9,35.4-21.4,183-26.7,185.1
		c-5,2-84.1-15.5-109.6-24.5c-4.7-1.7-7.4-9.3-8-10C488.8,342.6,515.6,146.4,518.1,144.2z"/>
	<g>
		<path class="st8" d="M531.5,218.6c-1.5,19.7,1.3,41.3,12,41.3c6.2,0,13.1-14.8,12.2-44.9c-0.2-7.1,0.3-14.1-3.1-23
			C549.1,182.8,535,173,531.5,218.6z"/>
		<path class="st9" d="M543.5,259.9c0,0,14.8-23.6,5.3-73.7c0,0,7,3.6,7,28.8C555.7,240.2,552.3,258.7,543.5,259.9z"/>
		<path class="st9" d="M532.3,207.7c0,0,1.2,22.4,11.5,24.9h-6.6c0,0-3-2.2-3.9-3.4c-0.9-1.2-2.3-4.2-2.3-4.2
			S530.9,210.4,532.3,207.7z"/>
		<path class="st10" d="M539.3,192.4c-7.2,7.1-6.9,33.5,4.6,37.6c3.9,1.4,8.8-6.2,10.2-18C555.7,197.4,547.1,184.7,539.3,192.4z"/>
	</g>
	<path class="st11" d="M453.2,314.9l-29.1-4.1c-5.9-0.8-10.1-6.3-9.2-12.2l17.4-124c0.8-5.9,6.3-10.1,12.2-9.2l29.1,4.1
		c5.9,0.8,10.1,6.3,9.2,12.2l-17.4,124C464.6,311.6,459.2,315.7,453.2,314.9z"/>
	<path class="st12" d="M212.4,135.4c-3.8,20.8-23.6,131-24.2,179c0,1.3,0.6,2.7,1.5,4c3.3,5.1,9,8.2,15,8.8l287.1,28L514,146.9
		L227.1,125c-6.6-0.5-12.8,3.6-14.6,9.9C212.5,135.1,212.4,135.3,212.4,135.4z M480.3,188.9l-14.4,112.7
		c-0.9,6.9-7.2,11.8-14.1,10.9l-22.6-2.9c-6.9-0.9-11.8-7.2-10.9-14.1l14.4-112.7c0.9-6.9,7.2-11.8,14.1-10.9l22.6,2.9
		C476.2,175.7,481.1,182,480.3,188.9z"/>
	<path class="st13" d="M451.2,192.5c8.6-10.4,25.8-1.3,21.3,17.6c-2.2,9-9.3,13.1-15.8,11.8c-5.6-1.1-11.2-8.1-10.7-15.1
		C446.6,198.8,448.4,195.9,451.2,192.5z"/>
	<path class="st14" d="M461.6,204.7c0,1.9-1.5,3.5-3.1,3.5c-1.6,0-3.1-1.6-3.1-3.5s1.5-3.5,3.1-3.5
		C460.1,201.2,461.6,202.7,461.6,204.7z"/>
	<path class="st15" d="M492.1,355.2c0,0,0.6,0.5,1.9,0.5s2-0.5,2-0.5c1.3,0,1.9-3.1,2-4.3l24-191.5c0.2-1.5,1.7-2.5,3.2-2.1
		l102,28.9c2.1,0.6,3.9-1.5,3-3.4l0,0c-0.3-0.6-0.8-1.1-1.5-1.4L523,145c-4.6-1.6-9.7,0.8-11.3,5.4c-1.5,4.1-3.2,10.8-5.8,27
		c-9.1,55.9-21,155.5-16.3,173.8C489.8,352.3,490.9,355.2,492.1,355.2z"/>
</g>
<path class="st16" d="M670.9,409.5c0,0-18.1-17.8-27.1-36.5c-12-24.8-30.7-54.3-52-42.2C535.9,362.3,604.2,448,604.2,448"/>
<path class="st17" d="M514.1,146.7c0,0-251.8-21.2-282.8-21.5c-19.5-0.2-20.9,19.3-26.4,53.8c-4,24.8-8.7,57.8-13.4,92.2
	c-2,14.5-6.4,31.3-3.2,43.1c3.6,12.8,45.4,15.8,75.1,18.1c24.1,1.9,228.7,22.7,228.7,22.7"/>
<line class="st17" x1="497.5" y1="355.7" x2="564.4" y2="374.3"/>
<path class="st18" d="M629.8,185.5c0,0,9.5,4.6,4.6,37.6c-6.2,41-14,106.6-14,106.6"/>
</svg>
